<svg width="1920" height="1080" viewBox="0 0 1920 1080" xmlns="http://www.w3.org/2000/svg">
  <defs>
    <!-- Gradient tanımları -->
    <radialGradient id="spaceGradient" cx="50%" cy="30%" r="70%">
      <stop offset="0%" style="stop-color:#e6f3ff;stop-opacity:1" />
      <stop offset="20%" style="stop-color:#cce7ff;stop-opacity:1" />
      <stop offset="40%" style="stop-color:#b3daff;stop-opacity:1" />
      <stop offset="60%" style="stop-color:#99ccff;stop-opacity:1" />
      <stop offset="80%" style="stop-color:#66b3ff;stop-opacity:1" />
      <stop offset="100%" style="stop-color:#3399ff;stop-opacity:1" />
    </radialGradient>
    
    <!-- Nebula gradientleri -->
    <radialGradient id="nebula1" cx="50%" cy="50%" r="50%">
      <stop offset="0%" style="stop-color:#ff9ff3;stop-opacity:0.4" />
      <stop offset="50%" style="stop-color:#f368e0;stop-opacity:0.2" />
      <stop offset="100%" style="stop-color:#ff9ff3;stop-opacity:0" />
    </radialGradient>
    
    <radialGradient id="nebula2" cx="50%" cy="50%" r="50%">
      <stop offset="0%" style="stop-color:#74c0fc;stop-opacity:0.4" />
      <stop offset="50%" style="stop-color:#339af0;stop-opacity:0.2" />
      <stop offset="100%" style="stop-color:#74c0fc;stop-opacity:0" />
    </radialGradient>
    
    <radialGradient id="nebula3" cx="50%" cy="50%" r="50%">
      <stop offset="0%" style="stop-color:#8ce99a;stop-opacity:0.4" />
      <stop offset="50%" style="stop-color:#51cf66;stop-opacity:0.2" />
      <stop offset="100%" style="stop-color:#8ce99a;stop-opacity:0" />
    </radialGradient>
    
    <radialGradient id="nebula4" cx="50%" cy="50%" r="50%">
      <stop offset="0%" style="stop-color:#ffd43b;stop-opacity:0.4" />
      <stop offset="50%" style="stop-color:#fab005;stop-opacity:0.2" />
      <stop offset="100%" style="stop-color:#ffd43b;stop-opacity:0" />
    </radialGradient>
    
    <!-- Gezegen gradientleri -->
    <radialGradient id="planet1" cx="30%" cy="30%" r="70%">
      <stop offset="0%" style="stop-color:#f3e5f5;stop-opacity:1" />
      <stop offset="50%" style="stop-color:#e1bee7;stop-opacity:1" />
      <stop offset="100%" style="stop-color:#ba68c8;stop-opacity:1" />
    </radialGradient>
    
    <radialGradient id="planet2" cx="30%" cy="30%" r="70%">
      <stop offset="0%" style="stop-color:#e0f2f1;stop-opacity:1" />
      <stop offset="50%" style="stop-color:#b2dfdb;stop-opacity:1" />
      <stop offset="100%" style="stop-color:#4db6ac;stop-opacity:1" />
    </radialGradient>
    
    <radialGradient id="planet3" cx="30%" cy="30%" r="70%">
      <stop offset="0%" style="stop-color:#fff8e1;stop-opacity:1" />
      <stop offset="50%" style="stop-color:#ffecb3;stop-opacity:1" />
      <stop offset="100%" style="stop-color:#ffc107;stop-opacity:1" />
    </radialGradient>
    
    <!-- Galaksi gradient -->
    <radialGradient id="galaxy" cx="50%" cy="50%" r="50%">
      <stop offset="0%" style="stop-color:#ffffff;stop-opacity:0" />
      <stop offset="30%" style="stop-color:#e1bee7;stop-opacity:0.1" />
      <stop offset="50%" style="stop-color:#ba68c8;stop-opacity:0.2" />
      <stop offset="70%" style="stop-color:#9c27b0;stop-opacity:0.1" />
      <stop offset="100%" style="stop-color:#ffffff;stop-opacity:0" />
    </radialGradient>
    
    <!-- Yıldız parlaklığı için filter -->
    <filter id="glow" x="-50%" y="-50%" width="200%" height="200%">
      <feGaussianBlur stdDeviation="2" result="coloredBlur"/>
      <feMerge> 
        <feMergeNode in="coloredBlur"/>
        <feMergeNode in="SourceGraphic"/>
      </feMerge>
    </filter>
  </defs>
  
  <!-- Ana arkaplan -->
  <rect width="1920" height="1080" fill="url(#spaceGradient)"/>
  
  <!-- Nebula bulutları -->
  <ellipse cx="300" cy="200" rx="200" ry="130" fill="url(#nebula1)"/>
  <ellipse cx="1500" cy="350" rx="170" ry="120" fill="url(#nebula2)"/>
  <ellipse cx="450" cy="750" rx="150" ry="100" fill="url(#nebula3)"/>
  <ellipse cx="1400" cy="850" rx="130" ry="90" fill="url(#nebula4)"/>
  
  <!-- Uzak galaksi -->
  <ellipse cx="1200" cy="250" rx="100" ry="100" fill="url(#galaxy)"/>
  
  <!-- Gezegenler -->
  <circle cx="1650" cy="200" r="50" fill="url(#planet1)"/>
  <circle cx="200" cy="700" r="40" fill="url(#planet2)"/>
  <circle cx="1400" cy="650" r="25" fill="url(#planet3)"/>
  
  <!-- Yıldızlar - Büyük parlak yıldızlar -->
  <circle cx="150" cy="150" r="3" fill="#ffffff" filter="url(#glow)"/>
  <circle cx="350" cy="100" r="2.5" fill="#ffffff" filter="url(#glow)"/>
  <circle cx="550" cy="200" r="2" fill="#ffffff" filter="url(#glow)"/>
  <circle cx="750" cy="120" r="3" fill="#ffffff" filter="url(#glow)"/>
  <circle cx="950" cy="180" r="2" fill="#ffffff" filter="url(#glow)"/>
  <circle cx="1150" cy="100" r="2.5" fill="#ffffff" filter="url(#glow)"/>
  <circle cx="1350" cy="150" r="2" fill="#ffffff" filter="url(#glow)"/>
  <circle cx="1550" cy="120" r="3" fill="#ffffff" filter="url(#glow)"/>
  <circle cx="1750" cy="180" r="2" fill="#ffffff" filter="url(#glow)"/>
  
  <!-- Orta boyut yıldızlar -->
  <circle cx="100" cy="350" r="2" fill="#ffffff" filter="url(#glow)"/>
  <circle cx="300" cy="320" r="1.5" fill="#ffffff" filter="url(#glow)"/>
  <circle cx="500" cy="380" r="2" fill="#ffffff" filter="url(#glow)"/>
  <circle cx="700" cy="300" r="1.5" fill="#ffffff" filter="url(#glow)"/>
  <circle cx="900" cy="350" r="2" fill="#ffffff" filter="url(#glow)"/>
  <circle cx="1100" cy="320" r="1.5" fill="#ffffff" filter="url(#glow)"/>
  <circle cx="1300" cy="380" r="2" fill="#ffffff" filter="url(#glow)"/>
  <circle cx="1500" cy="300" r="1.5" fill="#ffffff" filter="url(#glow)"/>
  <circle cx="1700" cy="350" r="2" fill="#ffffff" filter="url(#glow)"/>
  
  <!-- Alt bölge yıldızları -->
  <circle cx="80" cy="550" r="1.5" fill="#ffffff" filter="url(#glow)"/>
  <circle cx="280" cy="580" r="2" fill="#ffffff" filter="url(#glow)"/>
  <circle cx="480" cy="520" r="1.5" fill="#ffffff" filter="url(#glow)"/>
  <circle cx="680" cy="570" r="2" fill="#ffffff" filter="url(#glow)"/>
  <circle cx="880" cy="530" r="1.5" fill="#ffffff" filter="url(#glow)"/>
  <circle cx="1080" cy="580" r="2" fill="#ffffff" filter="url(#glow)"/>
  <circle cx="1280" cy="520" r="1.5" fill="#ffffff" filter="url(#glow)"/>
  <circle cx="1480" cy="570" r="2" fill="#ffffff" filter="url(#glow)"/>
  <circle cx="1680" cy="530" r="1.5" fill="#ffffff" filter="url(#glow)"/>
  <circle cx="1820" cy="580" r="2" fill="#ffffff" filter="url(#glow)"/>
  
  <!-- Alt kısım yıldızları -->
  <circle cx="120" cy="750" r="2" fill="#ffffff" filter="url(#glow)"/>
  <circle cx="320" cy="780" r="1.5" fill="#ffffff" filter="url(#glow)"/>
  <circle cx="520" cy="720" r="2" fill="#ffffff" filter="url(#glow)"/>
  <circle cx="720" cy="770" r="1.5" fill="#ffffff" filter="url(#glow)"/>
  <circle cx="920" cy="730" r="2" fill="#ffffff" filter="url(#glow)"/>
  <circle cx="1120" cy="780" r="1.5" fill="#ffffff" filter="url(#glow)"/>
  <circle cx="1320" cy="720" r="2" fill="#ffffff" filter="url(#glow)"/>
  <circle cx="1520" cy="770" r="1.5" fill="#ffffff" filter="url(#glow)"/>
  <circle cx="1720" cy="730" r="2" fill="#ffffff" filter="url(#glow)"/>
  
  <!-- En alt yıldızlar -->
  <circle cx="160" cy="920" r="1.5" fill="#ffffff" filter="url(#glow)"/>
  <circle cx="360" cy="950" r="2" fill="#ffffff" filter="url(#glow)"/>
  <circle cx="560" cy="890" r="1.5" fill="#ffffff" filter="url(#glow)"/>
  <circle cx="760" cy="940" r="2" fill="#ffffff" filter="url(#glow)"/>
  <circle cx="960" cy="900" r="1.5" fill="#ffffff" filter="url(#glow)"/>
  <circle cx="1160" cy="950" r="2" fill="#ffffff" filter="url(#glow)"/>
  <circle cx="1360" cy="890" r="1.5" fill="#ffffff" filter="url(#glow)"/>
  <circle cx="1560" cy="940" r="2" fill="#ffffff" filter="url(#glow)"/>
  <circle cx="1760" cy="900" r="1.5" fill="#ffffff" filter="url(#glow)"/>
  
  <!-- Küçük yıldızlar - daha çok sayıda -->
  <circle cx="180" cy="250" r="1" fill="#ffffff" opacity="0.8"/>
  <circle cx="220" cy="280" r="1" fill="#ffffff" opacity="0.7"/>
  <circle cx="380" cy="150" r="1" fill="#ffffff" opacity="0.8"/>
  <circle cx="420" cy="180" r="1" fill="#ffffff" opacity="0.6"/>
  <circle cx="580" cy="250" r="1" fill="#ffffff" opacity="0.8"/>
  <circle cx="620" cy="280" r="1" fill="#ffffff" opacity="0.7"/>
  <circle cx="780" cy="150" r="1" fill="#ffffff" opacity="0.8"/>
  <circle cx="820" cy="180" r="1" fill="#ffffff" opacity="0.6"/>
  <circle cx="980" cy="250" r="1" fill="#ffffff" opacity="0.8"/>
  <circle cx="1020" cy="280" r="1" fill="#ffffff" opacity="0.7"/>
  <circle cx="1180" cy="150" r="1" fill="#ffffff" opacity="0.8"/>
  <circle cx="1220" cy="180" r="1" fill="#ffffff" opacity="0.6"/>
  <circle cx="1380" cy="250" r="1" fill="#ffffff" opacity="0.8"/>
  <circle cx="1420" cy="280" r="1" fill="#ffffff" opacity="0.7"/>
  <circle cx="1580" cy="150" r="1" fill="#ffffff" opacity="0.8"/>
  <circle cx="1620" cy="180" r="1" fill="#ffffff" opacity="0.6"/>
  <circle cx="1780" cy="250" r="1" fill="#ffffff" opacity="0.8"/>
  <circle cx="1820" cy="280" r="1" fill="#ffffff" opacity="0.7"/>
  
  <!-- Daha çok küçük yıldızlar -->
  <circle cx="250" cy="450" r="1" fill="#ffffff" opacity="0.6"/>
  <circle cx="450" cy="480" r="1" fill="#ffffff" opacity="0.7"/>
  <circle cx="650" cy="420" r="1" fill="#ffffff" opacity="0.8"/>
  <circle cx="850" cy="450" r="1" fill="#ffffff" opacity="0.6"/>
  <circle cx="1050" cy="480" r="1" fill="#ffffff" opacity="0.7"/>
  <circle cx="1250" cy="420" r="1" fill="#ffffff" opacity="0.8"/>
  <circle cx="1450" cy="450" r="1" fill="#ffffff" opacity="0.6"/>
  <circle cx="1650" cy="480" r="1" fill="#ffffff" opacity="0.7"/>
  <circle cx="1850" cy="420" r="1" fill="#ffffff" opacity="0.8"/>
  
  <!-- En küçük yıldızlar - nokta benzeri -->
  <circle cx="90" cy="400" r="0.5" fill="#ffffff" opacity="0.5"/>
  <circle cx="190" cy="600" r="0.5" fill="#ffffff" opacity="0.6"/>
  <circle cx="290" cy="500" r="0.5" fill="#ffffff" opacity="0.4"/>
  <circle cx="390" cy="650" r="0.5" fill="#ffffff" opacity="0.5"/>
  <circle cx="490" cy="350" r="0.5" fill="#ffffff" opacity="0.6"/>
  <circle cx="590" cy="800" r="0.5" fill="#ffffff" opacity="0.4"/>
  <circle cx="690" cy="600" r="0.5" fill="#ffffff" opacity="0.5"/>
  <circle cx="790" cy="400" r="0.5" fill="#ffffff" opacity="0.6"/>
  <circle cx="890" cy="650" r="0.5" fill="#ffffff" opacity="0.4"/>
  <circle cx="990" cy="500" r="0.5" fill="#ffffff" opacity="0.5"/>
  <circle cx="1090" cy="350" r="0.5" fill="#ffffff" opacity="0.6"/>
  <circle cx="1190" cy="800" r="0.5" fill="#ffffff" opacity="0.4"/>
  <circle cx="1290" cy="600" r="0.5" fill="#ffffff" opacity="0.5"/>
  <circle cx="1390" cy="400" r="0.5" fill="#ffffff" opacity="0.6"/>
  <circle cx="1490" cy="650" r="0.5" fill="#ffffff" opacity="0.4"/>
  <circle cx="1590" cy="500" r="0.5" fill="#ffffff" opacity="0.5"/>
  <circle cx="1690" cy="350" r="0.5" fill="#ffffff" opacity="0.6"/>
  <circle cx="1790" cy="800" r="0.5" fill="#ffffff" opacity="0.4"/>
  
</svg>